<?xml version="1.0" encoding="UTF-8" standalone="no"?>
<!-- Created with Inkscape (http://www.inkscape.org/) -->

<svg
   xmlns:dc="http://purl.org/dc/elements/1.1/"
   xmlns:cc="http://creativecommons.org/ns#"
   xmlns:rdf="http://www.w3.org/1999/02/22-rdf-syntax-ns#"
   xmlns:svg="http://www.w3.org/2000/svg"
   xmlns="http://www.w3.org/2000/svg"
   xmlns:sodipodi="http://sodipodi.sourceforge.net/DTD/sodipodi-0.dtd"
   xmlns:inkscape="http://www.inkscape.org/namespaces/inkscape"
   width="256"
   height="256"
   viewBox="0 0 256 256"
   id="svg2"
   version="1.1"
   inkscape:version="0.91 r13725"
   sodipodi:docname="robin.svg"
   inkscape:export-filename="/home/a/ap/apj21/Downloads/robin.png"
   inkscape:export-xdpi="90"
   inkscape:export-ydpi="90">
  <defs
     id="defs4">
    <inkscape:path-effect
       effect="spiro"
       id="path-effect3398"
       is_visible="true" />
    <inkscape:path-effect
       effect="spiro"
       id="path-effect3394"
       is_visible="true" />
    <inkscape:path-effect
       effect="spiro"
       id="path-effect3390"
       is_visible="true" />
    <inkscape:path-effect
       effect="spiro"
       id="path-effect3386"
       is_visible="true" />
    <inkscape:path-effect
       effect="spiro"
       id="path-effect3380"
       is_visible="true" />
  </defs>
  <sodipodi:namedview
     id="base"
     pagecolor="#ffffff"
     bordercolor="#666666"
     borderopacity="1.0"
     inkscape:pageopacity="0.0"
     inkscape:pageshadow="2"
     inkscape:zoom="0.99999999"
     inkscape:cx="66.911079"
     inkscape:cy="262.11101"
     inkscape:document-units="px"
     inkscape:current-layer="layer1"
     showgrid="false"
     units="px"
     inkscape:window-width="1368"
     inkscape:window-height="1316"
     inkscape:window-x="1002"
     inkscape:window-y="167"
     inkscape:window-maximized="0" />
  <metadata
     id="metadata7">
    <rdf:RDF>
      <cc:Work
         rdf:about="">
        <dc:format>image/svg+xml</dc:format>
        <dc:type
           rdf:resource="http://purl.org/dc/dcmitype/StillImage" />
        <dc:title />
      </cc:Work>
    </rdf:RDF>
  </metadata>
  <g
     inkscape:label="Layer 1"
     inkscape:groupmode="layer"
     id="layer1"
     transform="translate(0,-796.36219)">
    <path
       style="fill:none;fill-rule:evenodd;stroke:#000000;stroke-width:6;stroke-linecap:butt;stroke-linejoin:miter;stroke-miterlimit:4;stroke-dasharray:none;stroke-opacity:1"
       d="m 124.98949,997.25759 0,-26.07143"
       id="path4223"
       inkscape:connector-curvature="0" />
    <path
       style="fill:none;fill-rule:evenodd;stroke:#000000;stroke-width:6;stroke-linecap:butt;stroke-linejoin:miter;stroke-miterlimit:4;stroke-dasharray:none;stroke-opacity:1"
       d="m 133.9868,997.2719 0,-26.1377"
       id="path4225"
       inkscape:connector-curvature="0" />
    <path
       style="fill:none;fill-rule:evenodd;stroke:#000000;stroke-width:6;stroke-linecap:butt;stroke-linejoin:miter;stroke-opacity:1;stroke-miterlimit:4;stroke-dasharray:none"
       d="m 94.285714,967.36219 c 0,0 136.428576,31.78571 135.000006,-119.28572 l 9.64285,-2.5 -10.35714,-3.57142 c 0,0 -0.35714,-5 -8.92857,-15 0,0 -4.28571,-5.71429 -16.78571,-12.5 0,0 -5.35715,-2.5 -17.85715,-1.42858 0,0 -21.07143,3.21429 -39.28571,24.28572 0,0 -34.64286,46.07143 -60.357147,62.14286 0,0 -41.428572,27.85714 -65.357143,-7.5 3.571428,30.71428 22.857143,47.85714 22.857143,47.85714 C 51.428571,948.43362 65,955.93362 65,955.93362 c 0,0 21.071429,9.64285 29.285714,11.42857 z"
       id="path3402"
       inkscape:connector-curvature="0" />
    <path
       style="fill:none;fill-rule:evenodd;stroke:#000000;stroke-width:1px;stroke-linecap:butt;stroke-linejoin:miter;stroke-opacity:1"
       d="m 223.21429,833.07648 c -4.28572,11.42857 3.92857,27.14285 3.92857,27.14285"
       id="path4245"
       inkscape:connector-curvature="0" />
    <path
       style="fill:#000000;stroke-width:6;stroke-miterlimit:4;stroke-dasharray:none"
       d="m 227.18677,859.08666 c -3.55711,-6.93019 -4.85245,-11.69763 -4.84643,-17.83718 l 0.005,-5.63598 1.61505,1.53555 c 1.96436,1.86771 3.93293,5.17426 4.63724,7.78894 0.39847,1.47938 1.06534,2.06556 2.81012,2.47006 2.23538,0.51825 2.24491,0.53854 0.41671,0.88746 -1.80347,0.34417 -1.87943,0.62639 -2.10395,7.81594 l -0.2328,7.45885 -2.30137,-4.48364 z"
       id="path4249"
       inkscape:connector-curvature="0" />
    <path
       style="fill:none;fill-rule:evenodd;stroke:#000000;stroke-width:5;stroke-linecap:butt;stroke-linejoin:miter;stroke-miterlimit:4;stroke-dasharray:none;stroke-opacity:1"
       d="m 69.447987,957.91293 c 47.224633,-0.25254 78.034283,-39.39595 78.034283,-39.39595 21.46575,-28.28427 33.58758,-31.31473 33.58758,-31.31473 18.68782,-8.83884 44.44671,-9.09137 44.44671,-9.09137"
       id="path4251"
       inkscape:connector-curvature="0" />
    <path
       style="fill:none;fill-rule:evenodd;stroke:#000000;stroke-width:3;stroke-linecap:butt;stroke-linejoin:miter;stroke-miterlimit:4;stroke-dasharray:none;stroke-opacity:1"
       d="m 113.27106,875.19642 c 22.06155,-12.44232 38.47316,-5.6556 38.47316,-5.6556 11.83791,5.93838 16.1426,12.44232 16.1426,12.44232 3.7666,4.52448 12.10693,5.65561 12.10693,5.65561"
       id="path4253"
       inkscape:connector-curvature="0" />
    <path
       style="fill:#ff6600;stroke-width:5;stroke-miterlimit:4;stroke-dasharray:none"
       d="m 175.44294,886.12153 c -2.80566,-0.98047 -4.89847,-2.2269 -6.30902,-3.75754 -5.20858,-5.65196 -8.22246,-8.13528 -13.97857,-11.51784 -5.30084,-3.11503 -8.78947,-3.93523 -16.71235,-3.92914 -5.40719,0.004 -7.9532,0.32856 -13.10516,1.66985 -1.63,0.42436 -3.01405,0.77156 -3.07568,0.77156 -0.0615,0 0.33586,-0.51134 0.88332,-1.1363 8.44895,-9.64513 14.70002,-17.14215 21.16608,-25.38482 5.4573,-6.95674 10.28985,-11.64615 16.79022,-16.29287 6.93811,-4.95963 15.57986,-9.05894 22.66285,-10.75039 3.94667,-0.94248 13.37172,-0.65566 17.42989,0.53041 0.47423,0.13861 2.35373,1.14136 4.17668,2.22834 6.96649,4.15399 11.76635,8.31264 15.70646,13.60825 1.94766,2.6177 1.999,2.72453 1.81123,3.76824 -0.37734,2.09743 -0.20766,9.002 0.27869,11.3394 0.69282,3.32987 1.66825,6.55912 2.97319,9.84329 l 1.17475,2.95648 -0.31809,4.8399 c -0.35896,5.46171 -0.94765,11.18997 -1.17315,11.41533 -0.0826,0.0826 -1.75649,0.24355 -3.71974,0.35776 -14.13442,0.82223 -28.78762,3.7862 -38.42625,7.77267 -4.80261,1.9863 -5.67662,2.31628 -6.08372,2.29688 -0.22317,-0.0106 -1.1914,-0.29389 -2.15163,-0.62946 z"
       id="path4257"
       inkscape:connector-curvature="0" />
    <path
       style="fill:none;fill-rule:evenodd;stroke:#000000;stroke-width:0.30000001;stroke-linecap:butt;stroke-linejoin:miter;stroke-miterlimit:4;stroke-dasharray:none;stroke-opacity:1"
       d="m 17.172593,892.50555 -1.38896,-12.94258"
       id="path4269"
       inkscape:connector-curvature="0" />
    <path
       style="fill:none;fill-rule:evenodd;stroke:#000000;stroke-width:0.29806346;stroke-linecap:butt;stroke-linejoin:miter;stroke-miterlimit:4;stroke-dasharray:none;stroke-opacity:1"
       d="m 22.398108,890.50159 c -0.936092,-2.52198 -6.583845,-10.84452 -6.583845,-10.84452"
       id="path4271"
       inkscape:connector-curvature="0" />
    <path
       style="fill:#000000;stroke-width:0.30000001;stroke-miterlimit:4;stroke-dasharray:none"
       d="m 17.169467,892.36089 c -0.07242,-0.55514 -1.326683,-12.31328 -1.319175,-12.36673 0.0061,-0.0432 0.256646,0.30702 0.72771,1.01723 2.793504,4.21172 4.525276,7.03008 5.41848,8.81827 0.210037,0.4205 0.378214,0.76794 0.373725,0.7721 -0.0044,0.004 -1.146933,0.42809 -2.538768,0.94208 -1.391836,0.51399 -2.55545,0.94424 -2.58581,0.95612 -0.04517,0.0177 -0.05901,-0.007 -0.07617,-0.13907 z"
       id="path4273"
       inkscape:connector-curvature="0" />
    <path
       style="fill:#000000;stroke-width:0.30000001;stroke-miterlimit:4;stroke-dasharray:none"
       d="M 68.695501,955.75424 C 60.793169,952.14966 47.93041,942.65299 42.242042,936.22345 34.879458,927.90154 28.961456,917.36159 25.539276,906.47588 c -0.439435,-1.39782 -0.798974,-2.72086 -0.798974,-2.9401 0,-0.25578 0.643184,0.12742 1.794904,1.06943 11.8841,9.72002 28.629701,11.37762 46.738725,4.6266 4.039976,-1.5061 10.888861,-4.93535 14.47595,-7.24813 7.199908,-4.64218 14.383459,-10.78786 24.617269,-21.06068 4.13306,-4.14881 7.69717,-7.64669 7.92025,-7.77306 1.01805,-0.57674 6.48032,-2.53369 8.7729,-3.14305 9.74056,-2.58896 19.42165,-2.14522 25.55357,1.1713 5.23738,2.83266 9.76071,6.41714 13.46181,10.66768 2.1244,2.43975 3.85071,3.74234 6.44388,4.8622 l 1.66681,0.7198 -1.12145,0.71822 c -6.74783,4.32151 -16.19574,13.91391 -25.77505,26.16929 -13.3869,17.12668 -32.39803,31.00497 -51.638484,37.69662 -6.426023,2.23491 -12.671222,3.66493 -19.031464,4.35778 -7.008554,0.76349 -6.884288,0.7712 -9.924421,-0.61554 z"
       id="path4275"
       inkscape:connector-curvature="0" />
    <path
       style="fill:none;fill-rule:evenodd;stroke:#000000;stroke-width:1.81811142;stroke-linecap:butt;stroke-linejoin:miter;stroke-miterlimit:4;stroke-dasharray:none;stroke-opacity:1"
       d="m 25.006518,902.43994 c 22.39241,23.60001 61.940295,0 61.940295,0 15.530217,-10.98932 33.046857,-28.46412 33.046857,-28.46412"
       id="path4279"
       inkscape:connector-curvature="0" />
    <path
       style="fill:#000000;stroke-width:1.79999995;stroke-miterlimit:4;stroke-dasharray:none"
       id="path4283"
       sodipodi:type="arc"
       sodipodi:cx="199.18346"
       sodipodi:cy="834.19714"
       sodipodi:rx="6.9151249"
       sodipodi:ry="6.9151249"
       sodipodi:start="0"
       sodipodi:end="6.2826268"
       d="m 206.09858,834.19714 a 6.9151249,6.9151249 0 0 1 -6.91416,6.91513 6.9151249,6.9151249 0 0 1 -6.91609,-6.9132 6.9151249,6.9151249 0 0 1 6.91223,-6.91705 6.9151249,6.9151249 0 0 1 6.91802,6.91126 l -6.91512,0.004 z" />
    <text
       xml:space="preserve"
       style="font-style:normal;font-weight:normal;font-size:55.38129807px;line-height:125%;font-family:sans-serif;letter-spacing:0px;word-spacing:0px;fill:#000000;fill-opacity:1;stroke:none;stroke-width:1px;stroke-linecap:butt;stroke-linejoin:miter;stroke-opacity:1"
       x="61.07906"
       y="1042.97"
       id="text3426"
       sodipodi:linespacing="125%"><tspan
         sodipodi:role="line"
         id="tspan3428"
         x="61.07906"
         y="1042.97"
         style="font-style:normal;font-variant:normal;font-weight:500;font-stretch:normal;font-size:55.38129807px;line-height:125%;font-family:BetecknaLowerCase;-inkscape-font-specification:'BetecknaLowerCase, Medium';text-align:start;writing-mode:lr-tb;text-anchor:start"
         dx="0 0.009531673 -0.009531673 0">ROBIN</tspan></text>
  </g>
</svg>
